HIERARCHY
ROOT HipCenter
{
    OFFSET 0.0 0.0 -0.0
    CHANNELS 6 Xposition Yposition Zposition Zrotation Xrotation Yrotation
    JOINT Spine
    {
        OFFSET 0.0 30.519819259643555 0.0
        CHANNELS 3 Zrotation Xrotation Yrotation
        JOINT ShoulderCenter
        {
            OFFSET 0.0 22.589458465576172 0.0
            CHANNELS 3 Zrotation Xrotation Yrotation
            JOINT LeftShoulder
            {
                OFFSET 18.250019073486328 0.0 0.0
                CHANNELS 3 Zrotation Xrotation Yrotation
                JOINT LeftElbow
                {
                    OFFSET 21.977169036865234 0.0 0.0
                    CHANNELS 3 Zrotation Xrotation Yrotation
                    JOINT LeftWrist
                    {
                        OFFSET 21.642074584960938 0.0 0.0
                        CHANNELS 3 Zrotation Xrotation Yrotation
                        JOINT LeftHand
                        {
                            OFFSET 7.493435859680176 0.0 0.0
                            CHANNELS 3 Zrotation Xrotation Yrotation
                            End Site
                            {
                                OFFSET 2.9973745346069336 0.0 0.0
                            }
                        }
                    }
                }
            }
            JOINT RightShoulder
            {
                OFFSET -18.250019073486328 0.0 0.0
                CHANNELS 3 Zrotation Xrotation Yrotation
                JOINT RightElbow
                {
                    OFFSET -21.977169036865234 0.0 0.0
                    CHANNELS 3 Zrotation Xrotation Yrotation
                    JOINT RightWrist
                    {
                        OFFSET -21.642074584960938 0.0 0.0
                        CHANNELS 3 Zrotation Xrotation Yrotation
                        JOINT RightHand
                        {
                            OFFSET -7.493435859680176 0.0 0.0
                            CHANNELS 3 Zrotation Xrotation Yrotation
                            End Site
                            {
                                OFFSET -2.9973745346069336 0.0 0.0
                            }
                        }
                    }
                }
            }
            End Site
            {
                OFFSET 0.0 9.035784721374512 0.0
            }
        }
    }
    JOINT LeftHip
    {
        OFFSET 8.107311248779297 0.0 0.0
        CHANNELS 3 Zrotation Xrotation Yrotation
        JOINT LeftKnee
        {
            OFFSET 0.0 -35.415802001953125 0.0
            CHANNELS 3 Zrotation Xrotation Yrotation
            JOINT LeftAnkle
            {
                OFFSET 0.0 -37.394744873046875 0.0
                CHANNELS 3 Zrotation Xrotation Yrotation
                JOINT LeftFoot
                {
                    OFFSET 0.0 -10.43188190460205 0.0
                    CHANNELS 3 Zrotation Xrotation Yrotation
                    End Site
                    {
                        OFFSET 0.0 0.0 4.172752857208252
                    }
                }
            }
        }
    }
    JOINT RightHip
    {
        OFFSET -8.107311248779297 0.0 0.0
        CHANNELS 3 Zrotation Xrotation Yrotation
        JOINT RightKnee
        {
            OFFSET 0.0 -35.415802001953125 0.0
            CHANNELS 3 Zrotation Xrotation Yrotation
            JOINT RightAnkle
            {
                OFFSET 0.0 -37.394744873046875 0.0
                CHANNELS 3 Zrotation Xrotation Yrotation
                JOINT RightFoot
                {
                    OFFSET 0.0 -10.43188190460205 0.0
                    CHANNELS 3 Zrotation Xrotation Yrotation
                    End Site
                    {
                        OFFSET 0.0 0.0 4.172752857208252
                    }
                }
            }
        }
    }
}
MOTION
Frames: 10
Frame Time: 0.03333333333333333
-26.939010620117188 -0.38409408926963806 -357.37298583984375 1.1029230718073797 11.189142488564745 -145.67176163277784 -0.9353275826798068 -1.7223706345429866 -0.2276009152423297 2.303886642472541e-07 4.435622592327044e-09 -0.40396131146950265 -51.749087458846795 -31.259521987284696 7.1493974213569285 2.2067815606359094e-06 -6.251500167783408e-07 106.84836126811307 -7.763400902349845e-08 -17.934778632019608 42.921317337700074 -3.1805546814635168e-15 -6.361109362927033e-15 -3.1805546814635168e-15 57.360358934963195 -40.35769586168008 -46.65567712405089 6.032000933845766e-06 -2.0620333007419266e-07 -75.7444464802089 -1.539823280960287e-06 -25.28568528565082 -50.046887672382645 -6.3611093629270335e-15 -4.4139062980501586e-32 7.951386703658792e-16 10.841179463075258 -5.191564626362372 18.633839181236986 -0.40025915024237013 -7.616052960878073 -0.12600680084569676 41.91795326241925 24.097061003885972 -19.52510059325536 0.0 0.0 -9.54166404439055e-15 -4.103046277562014 -3.375676504015253 -29.82513963503403 7.368183636603682 -9.87624026370436 0.7289811210862398 -15.792566554292659 51.166351408405646 9.094942491308807 -5.963540027744094e-16 4.138037154422024e-33 -7.951386703658792e-16
-26.9725284576416 -0.4076870083808899 -357.3760986328125 1.0303596740347578 11.185918971588604 -145.80143953039305 -0.9267390364104455 -1.719185701471083 -0.2230582951732124 -3.711640376658052e-08 -3.0431293914057917e-07 -0.3265040058526695 -52.49017203390632 -31.66271532001186 7.379736418493393 -3.061491971465534e-06 1.5657797611960147e-06 106.38352268519 5.166040405979957e-07 -14.991219053423674 37.67374951164436 0.0 0.0 0.0 56.47991664229778 -40.44508282328013 -46.67504813043473 6.518768725775543e-06 1.2961807683563149e-06 -76.33735741968587 2.605588457929771e-06 -24.235738910693545 -48.60764768378402 -1.2722218725854067e-14 1.7655625192200634e-31 -1.5902773407317584e-15 10.756453270172436 -5.073283261111839 18.664013302127433 -0.38843294588421 -7.661484271429773 -0.11890441603932747 42.06065779138323 24.215636858274486 -19.737230980215102 -1.5902773407317584e-15 -4.4139062980501586e-32 3.1805546814635168e-15 -4.2198151053033115 -3.3329716409337333 -29.79472823331186 7.479492090174953 -9.834639521126118 0.7476785857212811 -16.579908978027316 51.678486994030244 9.687082185004966 -7.951386703658792e-16 -3.1805546814635168e-15 -7.951386703658792e-16
-26.968250274658203 -0.4024326801300049 -357.3724060058594 0.9961070202787229 11.151544303241186 -145.84441982315215 -0.8750289880885055 -1.7030591130995127 -0.21698389759187522 1.4657769645287423e-07 2.9001808594983896e-07 -0.2685943540675916 -52.50126375912139 -31.62824527173533 7.3690475108660936 -1.6296665840134034e-06 4.509397850568826e-06 106.43427385289611 -1.999030992367255e-06 -14.698297171964667 36.450493944746086 3.180554681463516e-15 -3.975693351829395e-16 1.1034765745125397e-32 56.209953633660945 -40.50904898459431 -48.0332468037397 8.921831797777664e-07 -1.7715409209985306e-06 -74.60224139199508 -1.0403440935535718e-06 -21.363149007543328 -54.11647374285525 0.0 0.0 1.5902773407317588e-15 10.707751093068687 -5.103897844523786 18.70235264926842 -0.31451035246661585 -7.641345745996162 -0.10976842477514144 42.60227738313204 24.23621934139245 -20.14431354188356 -1.5902773407317588e-15 -3.1805546814635168e-15 -1.033680271475643e-14 -4.3580975930191075 -3.4181649465757533 -29.836148277527567 7.677231313215721 -9.673817085427538 0.773867661224939 -19.55141312153986 55.313771986282426 12.443256683250798 -2.3854160110976376e-15 6.3611093629270335e-15 1.3241718894150476e-31
-26.96763038635254 -0.46679070591926575 -357.3935852050781 1.0199413253073912 11.183168537712662 -145.77343904984932 -0.8855336302739367 -1.7005451569851202 -0.22538857485011443 2.746569933521752e-07 1.15903857601257e-06 -0.32881890554090154 -52.48344936219912 -31.521850387060343 7.40418359260904 -4.1867799022517564e-06 -4.2223983186466264e-07 106.4405000877171 -1.298095554268713e-06 -14.779356374626138 40.01467380940896 8.827812596100317e-32 6.3611093629270335e-15 -1.5902773407317584e-15 58.314423185856725 -40.022896940925705 -46.827145650256476 -2.1896821715795008e-06 -3.166267361205834e-06 -74.23385977299868 -5.850485103359897e-07 -23.053345126075683 -50.38682240538766 2.2069531490250793e-32 1.5902773407317584e-15 -1.5902773407317584e-15 10.714425911328775 -5.190111655442284 18.635553125677802 -0.233429502365253 -7.513455839861408 -0.12476336065522985 43.224028765727006 24.56599143637304 -20.70689686819462 6.620859447075238e-32 -3.1805546814635168e-15 2.3854160110976376e-15 -4.342449281539804 -3.4280688502267105 -29.793935919394475 7.777833625203338 -9.494473075263283 0.7199867329385365 -17.97966580886107 41.49313581810841 9.162730078390387 5.963540027744094e-16 0.0 0.0
-26.971302032470703 -0.4948374032974243 -357.4028015136719 1.0198823269690493 11.196620479361101 -145.86109434301545 -0.8821868481146589 -1.6958079889750965 -0.22261679394012282 -1.1871574596030467e-08 1.0801897371914666e-07 -0.23632115882356364 -52.48041957215601 -31.37750355547204 7.505734769248929 -2.181628005416485e-06 8.78491274835875e-07 106.51699410085638 -1.2536514660046266e-06 -15.026570787766557 37.27874172581681 -3.1805546814635168e-15 8.827812596100317e-32 -3.1805546814635168e-15 57.595699522617544 -40.1040685624721 -47.57481806202513 3.1347027965680116e-06 1.2062530273169224e-06 -73.80871103101877 -1.1255719882723678e-06 -24.214986357505573 -53.196972662247425 -6.620859447075238e-32 2.3854160110976376e-15 3.1805546814635168e-15 10.746348356764495 -5.140681945728446 18.67240635823873 -0.367127173620343 -7.566917595958002 -0.1318346033083783 43.976583023912895 24.7427885761528 -21.31000945736566 0.0 0.0 1.5902773407317584e-15 -4.365140940820945 -3.469736081498076 -29.795188391214495 7.846580201380278 -9.47571324817142 0.7440398369876776 -17.26808878029059 42.94958240544401 8.813088404838656 -3.975693351829396e-16 6.896728590703373e-34 -1.987846675914698e-16
-26.97201156616211 -0.49218279123306274 -357.3966979980469 0.9684782588674655 11.246556020635404 -145.9277526244706 -0.8633380904995892 -1.806780171255049 -0.23383942724465165 -9.090937539716855e-08 1.9575944548294113e-07 -0.1813459273351207 -52.42215715456533 -30.583070799656618 7.354634539462768 5.015367680760688e-06 1.268264430428853e-06 105.0263434453718 1.401918217316906e-06 -14.056958480473332 36.678905038438906 -3.1805546814635168e-15 0.0 0.0 57.14814367746281 -40.291945105177916 -48.47544987117702 -5.613520674789959e-07 -1.7678297047024292e-06 -73.09107805411857 -1.965348407141146e-07 -23.519323984635278 -53.14951784455662 -6.361109362927033e-15 -1.7655625192200634e-31 3.1805546814635164e-15 10.708911940180409 -5.145927531377653 18.722907740597716 -0.18973451152925924 -7.302993923618912 -0.10934411007860735 44.1022281316575 25.864377000906597 -22.31139535285804 0.0 0.0 3.1805546814635168e-15 -4.48111456719938 -3.383337301371601 -29.869566933191035 7.971425759112957 -9.64244790780138 0.7877707489222527 -16.425477572711134 47.50042797430174 8.755507706624787 3.975693351829396e-16 -2.758691436281349e-33 -7.951386703658792e-16
-26.969989776611328 -0.4866825044155121 -357.3878173828125 0.9461767219011835 11.259475808363048 -146.02873054140244 -0.8602790480601906 -1.8188677573496521 -0.23337651676006396 5.457925725445839e-07 4.493254089392243e-07 -0.04144584404330902 -51.3640806499653 -31.187779755570208 6.9727447175454875 1.4104219657165971e-06 -1.3504285587923592e-06 105.6122175968738 -5.19251199918467e-07 -15.239817572976593 36.906790900560175 0.0 0.0 0.0 56.042849075994326 -40.61970588786625 -52.810792912008246 -1.1983042825648972e-06 -1.065463119760917e-06 -67.83589582573518 9.885267724663313e-07 -24.20031142619677 -53.38873389362027 6.361109362927035e-15 7.951386703658794e-16 -4.4139062980501586e-32 10.747288004223181 -5.044967111667813 18.80357236364919 -0.32145673338694514 -7.388038772273602 -0.11808147364309983 44.48905998414566 25.776968444234395 -22.48022599842442 -2.648343778830095e-31 -3.1805546814635164e-15 -9.541664044390549e-15 -4.512172172560151 -3.336701397348489 -29.969004587052655 8.048407437794392 -9.676534144828523 0.8175237306684531 -16.59817527155705 47.57849655208904 8.778249945732501 3.975693351829396e-16 -2.069018577211012e-33 -5.963540027744094e-16
-26.95969009399414 -0.47635069489479065 -357.3941955566406 0.9635496015979013 11.267447135661143 -146.11480578107012 -0.8510358644152615 -1.8105246416451166 -0.2328612563539177 -5.466343982253636e-07 -2.9111431944279157e-07 0.06376671186497358 -51.17027570395427 -31.28996385574288 6.927396219676821 1.5251313479070786e-06 -1.0952703946182145e-06 104.47298672682668 -4.4470064910501433e-07 -17.400614708183014 41.919933050858006 0.0 0.0 3.1805546814635168e-15 60.46699941933625 -39.75518226033437 -48.11796449649356 4.239373689145933e-06 3.15987382850511e-06 -70.84567026904227 -2.595431170801361e-07 -27.753817170331732 -57.635653211898415 0.0 0.0 0.0 10.814651234324243 -5.02037032335125 18.849055947006104 -0.4758393243999586 -7.421889312770702 -0.13461862071448324 45.25302478604001 25.53599249106726 -22.75777056989043 0.0 0.0 7.951386703658794e-16 -4.495985469406911 -3.408584380196946 -29.984378791951684 8.222221571488443 -9.558585899411153 0.8429191585883162 -19.858615528945926 53.79680733056088 12.089602845309491 1.3914926731402886e-15 0.0 0.0
-26.957279205322266 -0.452029287815094 -357.3642883300781 0.9682318690231474 11.253187395420559 -146.11114298658802 -0.8705906786301513 -1.8240665662844724 -0.2335424752907543 3.2699978525212536e-07 -5.759842221906613e-07 0.10500884299609363 -51.21278561668374 -31.27957530146159 7.164387807997884 1.8049229747846562e-06 -1.619466863557845e-06 105.46788021133897 2.9962612637434457e-06 -10.655677155032295 41.82694049414562 -2.2069531490250793e-32 -7.951386703658792e-16 -3.1805546814635168e-15 59.5103207502522 -39.73636042699857 -47.59761409982277 1.463823420136219e-06 -1.1210454014460437e-06 -75.51821842851743 8.117120325515213e-07 -25.851867082438183 -58.079362075539635 -2.2069531490250793e-32 -3.1805546814635168e-15 -7.951386703658792e-16 10.727348519506151 -4.990704726806118 18.859984836453126 -0.3632482638122878 -7.61765301782908 -0.12754921088573368 46.112479722930814 25.525187184987004 -23.42732088474148 3.1805546814635176e-15 -3.1805546814635176e-15 8.827812596100317e-32 -4.397885593275978 -3.390544273151765 -29.99938945107695 8.074497327033884 -9.700298952600354 0.8537337527740491 -18.997278025192728 52.99945360177394 11.274266963388014 7.951386703658792e-16 -5.517382872562698e-33 -7.951386703658792e-16
-26.950868606567383 -0.43474477529525757 -357.3277893066406 0.912730760885369 11.258888885224076 -146.0938113678212 -0.8548282751368869 -1.862919347840307 -0.2374607735801722 7.836967399112858e-08 -4.310393970750164e-07 0.0827051698379793 -51.18745516254979 -31.181281395028527 7.429218711388159 -1.979219374718072e-06 -1.4599650711374853e-06 105.62654505774088 -1.0410425653373556e-06 -19.138834351812243 42.65565622129153 -3.1805546814635164e-15 4.4139062980501586e-32 -1.5902773407317582e-15 58.711475464501056 -39.692522120554244 -48.11858567218138 -7.185729511180908e-07 -1.3232093215047498e-06 -75.7281787403288 1.1537985713622312e-07 -18.749396568392058 -75.24617008933264 0.0 1.5778532990072913e-15 0.0 10.653389458496731 -4.956044565591018 18.85377681694249 -0.4075953005291841 -7.7109979694565975 -0.14147817613590713 45.79586301374991 25.51013888793685 -23.119826291763243 -1.5448672043175555e-31 -3.1805546814635168e-15 -5.565970692561154e-15 -4.461343145091994 -3.3884455360628727 -30.004887240792595 8.207715271752917 -9.67471292813059 0.868388885588491 -20.79710245315518 52.579448965488126 12.59803396430855 1.987846675914698e-16 2.069018577211012e-33 1.1927080055488188e-15
